<mxfile host="app.diagrams.net" modified="2023-08-04T02:22:28.353Z" agent="Mozilla/5.0 (Windows NT 10.0; Win64; x64) AppleWebKit/537.36 (KHTML, like Gecko) Chrome/113.0.0.0 Safari/537.36" etag="GI4sn_N-ky-9D8mnrF_5" version="21.6.6" type="github">
  <diagram name="第 1 页" id="KX3Jd0_kvh_tnPCaIOLx">
    <mxGraphModel dx="2261" dy="841" grid="1" gridSize="10" guides="1" tooltips="1" connect="1" arrows="1" fold="1" page="1" pageScale="1" pageWidth="827" pageHeight="1169" math="0" shadow="0">
      <root>
        <mxCell id="0" />
        <mxCell id="1" parent="0" />
        <mxCell id="U5FtNi8npd5qvVz8V4rA-10" style="edgeStyle=orthogonalEdgeStyle;rounded=0;orthogonalLoop=1;jettySize=auto;html=1;entryX=0.5;entryY=0;entryDx=0;entryDy=0;" edge="1" parent="1" source="U5FtNi8npd5qvVz8V4rA-1" target="U5FtNi8npd5qvVz8V4rA-7">
          <mxGeometry relative="1" as="geometry" />
        </mxCell>
        <mxCell id="U5FtNi8npd5qvVz8V4rA-1" value="" style="ellipse;whiteSpace=wrap;html=1;aspect=fixed;" vertex="1" parent="1">
          <mxGeometry x="-153.75" y="190" width="50" height="50" as="geometry" />
        </mxCell>
        <mxCell id="U5FtNi8npd5qvVz8V4rA-3" value="工作时间段，无客服" style="text;html=1;strokeColor=#b85450;fillColor=#f8cecc;align=center;verticalAlign=middle;whiteSpace=wrap;rounded=0;" vertex="1" parent="1">
          <mxGeometry x="-190" y="120" width="122.5" height="30" as="geometry" />
        </mxCell>
        <mxCell id="U5FtNi8npd5qvVz8V4rA-12" style="edgeStyle=orthogonalEdgeStyle;rounded=0;orthogonalLoop=1;jettySize=auto;html=1;" edge="1" parent="1" source="U5FtNi8npd5qvVz8V4rA-7" target="U5FtNi8npd5qvVz8V4rA-11">
          <mxGeometry relative="1" as="geometry" />
        </mxCell>
        <mxCell id="U5FtNi8npd5qvVz8V4rA-7" value="" style="rounded=0;whiteSpace=wrap;html=1;" vertex="1" parent="1">
          <mxGeometry x="-199" y="320" width="140" height="121" as="geometry" />
        </mxCell>
        <mxCell id="U5FtNi8npd5qvVz8V4rA-9" value="无客服" style="shape=umlActor;verticalLabelPosition=bottom;verticalAlign=top;html=1;outlineConnect=0;dashed=1;" vertex="1" parent="1">
          <mxGeometry x="-142.75" y="341" width="30" height="60" as="geometry" />
        </mxCell>
        <mxCell id="U5FtNi8npd5qvVz8V4rA-15" style="edgeStyle=orthogonalEdgeStyle;rounded=0;orthogonalLoop=1;jettySize=auto;html=1;" edge="1" parent="1" source="U5FtNi8npd5qvVz8V4rA-11" target="U5FtNi8npd5qvVz8V4rA-14">
          <mxGeometry relative="1" as="geometry" />
        </mxCell>
        <mxCell id="U5FtNi8npd5qvVz8V4rA-11" value="请等待" style="rounded=1;whiteSpace=wrap;html=1;" vertex="1" parent="1">
          <mxGeometry x="-189" y="490" width="120" height="60" as="geometry" />
        </mxCell>
        <mxCell id="U5FtNi8npd5qvVz8V4rA-14" value="" style="ellipse;whiteSpace=wrap;html=1;aspect=fixed;" vertex="1" parent="1">
          <mxGeometry x="-154" y="600" width="50" height="50" as="geometry" />
        </mxCell>
        <mxCell id="U5FtNi8npd5qvVz8V4rA-17" style="edgeStyle=orthogonalEdgeStyle;rounded=0;orthogonalLoop=1;jettySize=auto;html=1;entryX=0.5;entryY=0;entryDx=0;entryDy=0;" edge="1" parent="1" source="U5FtNi8npd5qvVz8V4rA-18" target="U5FtNi8npd5qvVz8V4rA-21">
          <mxGeometry relative="1" as="geometry" />
        </mxCell>
        <mxCell id="U5FtNi8npd5qvVz8V4rA-18" value="" style="ellipse;whiteSpace=wrap;html=1;aspect=fixed;" vertex="1" parent="1">
          <mxGeometry x="165.25" y="190" width="50" height="50" as="geometry" />
        </mxCell>
        <mxCell id="U5FtNi8npd5qvVz8V4rA-19" value="工作时间段，有客服" style="text;html=1;strokeColor=#b85450;fillColor=#f8cecc;align=center;verticalAlign=middle;whiteSpace=wrap;rounded=0;" vertex="1" parent="1">
          <mxGeometry x="129" y="120" width="122.5" height="30" as="geometry" />
        </mxCell>
        <mxCell id="U5FtNi8npd5qvVz8V4rA-20" style="edgeStyle=orthogonalEdgeStyle;rounded=0;orthogonalLoop=1;jettySize=auto;html=1;" edge="1" parent="1" source="U5FtNi8npd5qvVz8V4rA-21">
          <mxGeometry relative="1" as="geometry">
            <mxPoint x="190" y="490" as="targetPoint" />
          </mxGeometry>
        </mxCell>
        <mxCell id="U5FtNi8npd5qvVz8V4rA-21" value="" style="rounded=0;whiteSpace=wrap;html=1;" vertex="1" parent="1">
          <mxGeometry x="110" y="320" width="160" height="121" as="geometry" />
        </mxCell>
        <mxCell id="U5FtNi8npd5qvVz8V4rA-22" value="客服A&lt;br&gt;最大接入数&lt;font color=&quot;#ff0000&quot;&gt; 5 &lt;/font&gt;人" style="shape=umlActor;verticalLabelPosition=bottom;verticalAlign=top;html=1;outlineConnect=0;" vertex="1" parent="1">
          <mxGeometry x="176.25" y="341" width="30" height="60" as="geometry" />
        </mxCell>
        <mxCell id="U5FtNi8npd5qvVz8V4rA-28" style="edgeStyle=orthogonalEdgeStyle;rounded=0;orthogonalLoop=1;jettySize=auto;html=1;entryX=0.5;entryY=0;entryDx=0;entryDy=0;" edge="1" parent="1" source="U5FtNi8npd5qvVz8V4rA-26" target="U5FtNi8npd5qvVz8V4rA-27">
          <mxGeometry relative="1" as="geometry" />
        </mxCell>
        <mxCell id="U5FtNi8npd5qvVz8V4rA-32" style="edgeStyle=orthogonalEdgeStyle;rounded=0;orthogonalLoop=1;jettySize=auto;html=1;entryX=0;entryY=0.5;entryDx=0;entryDy=0;" edge="1" parent="1" source="U5FtNi8npd5qvVz8V4rA-26" target="U5FtNi8npd5qvVz8V4rA-31">
          <mxGeometry relative="1" as="geometry" />
        </mxCell>
        <mxCell id="U5FtNi8npd5qvVz8V4rA-26" value="正在服务人数小于5人" style="rhombus;whiteSpace=wrap;html=1;" vertex="1" parent="1">
          <mxGeometry x="140.5" y="490" width="99" height="100" as="geometry" />
        </mxCell>
        <mxCell id="U5FtNi8npd5qvVz8V4rA-30" style="edgeStyle=orthogonalEdgeStyle;rounded=0;orthogonalLoop=1;jettySize=auto;html=1;" edge="1" parent="1" source="U5FtNi8npd5qvVz8V4rA-27" target="U5FtNi8npd5qvVz8V4rA-29">
          <mxGeometry relative="1" as="geometry" />
        </mxCell>
        <mxCell id="U5FtNi8npd5qvVz8V4rA-27" value="自动接入" style="rounded=1;whiteSpace=wrap;html=1;" vertex="1" parent="1">
          <mxGeometry x="130" y="650" width="120" height="60" as="geometry" />
        </mxCell>
        <mxCell id="U5FtNi8npd5qvVz8V4rA-29" value="" style="ellipse;whiteSpace=wrap;html=1;aspect=fixed;" vertex="1" parent="1">
          <mxGeometry x="165" y="760" width="50" height="50" as="geometry" />
        </mxCell>
        <mxCell id="U5FtNi8npd5qvVz8V4rA-36" style="edgeStyle=orthogonalEdgeStyle;rounded=0;orthogonalLoop=1;jettySize=auto;html=1;" edge="1" parent="1" source="U5FtNi8npd5qvVz8V4rA-31" target="U5FtNi8npd5qvVz8V4rA-35">
          <mxGeometry relative="1" as="geometry" />
        </mxCell>
        <mxCell id="U5FtNi8npd5qvVz8V4rA-37" style="edgeStyle=orthogonalEdgeStyle;rounded=0;orthogonalLoop=1;jettySize=auto;html=1;entryX=0.5;entryY=0;entryDx=0;entryDy=0;" edge="1" parent="1" source="U5FtNi8npd5qvVz8V4rA-31" target="U5FtNi8npd5qvVz8V4rA-34">
          <mxGeometry relative="1" as="geometry" />
        </mxCell>
        <mxCell id="U5FtNi8npd5qvVz8V4rA-31" value="排队等候进入待接入列表" style="rounded=1;whiteSpace=wrap;html=1;" vertex="1" parent="1">
          <mxGeometry x="310" y="510" width="120" height="60" as="geometry" />
        </mxCell>
        <mxCell id="U5FtNi8npd5qvVz8V4rA-39" style="edgeStyle=orthogonalEdgeStyle;rounded=0;orthogonalLoop=1;jettySize=auto;html=1;entryX=1;entryY=0.5;entryDx=0;entryDy=0;" edge="1" parent="1" source="U5FtNi8npd5qvVz8V4rA-34" target="U5FtNi8npd5qvVz8V4rA-29">
          <mxGeometry relative="1" as="geometry">
            <Array as="points">
              <mxPoint x="370" y="785" />
            </Array>
          </mxGeometry>
        </mxCell>
        <mxCell id="U5FtNi8npd5qvVz8V4rA-34" value="空闲时自动接入" style="rounded=1;whiteSpace=wrap;html=1;" vertex="1" parent="1">
          <mxGeometry x="310" y="650" width="120" height="60" as="geometry" />
        </mxCell>
        <mxCell id="U5FtNi8npd5qvVz8V4rA-38" style="edgeStyle=orthogonalEdgeStyle;rounded=0;orthogonalLoop=1;jettySize=auto;html=1;entryX=1;entryY=0.5;entryDx=0;entryDy=0;" edge="1" parent="1" source="U5FtNi8npd5qvVz8V4rA-35" target="U5FtNi8npd5qvVz8V4rA-29">
          <mxGeometry relative="1" as="geometry">
            <Array as="points">
              <mxPoint x="550" y="785" />
            </Array>
          </mxGeometry>
        </mxCell>
        <mxCell id="U5FtNi8npd5qvVz8V4rA-35" value="客服手动接入，最大接入人数自动+1" style="rounded=1;whiteSpace=wrap;html=1;" vertex="1" parent="1">
          <mxGeometry x="490" y="650" width="120" height="60" as="geometry" />
        </mxCell>
      </root>
    </mxGraphModel>
  </diagram>
</mxfile>
